<?xml version="1.0" standalone="no"?>
<!DOCTYPE svg PUBLIC "-//W3C//DTD SVG 20010904//EN"
 "http://www.w3.org/TR/2001/REC-SVG-20010904/DTD/svg10.dtd">
<svg version="1.0" xmlns="http://www.w3.org/2000/svg"
 width="512.000000pt" height="512.000000pt" viewBox="0 0 512.000000 512.000000"
 preserveAspectRatio="xMidYMid meet">

<g transform="translate(0.000000,512.000000) scale(0.100000,-0.100000)"
fill="#000000" stroke="none">
<path d="M1663 4270 c-53 -11 -108 -40 -154 -82 -30 -27 -1026 -1095 -1176
-1261 -44 -47 -57 -99 -33 -123 11 -11 -66 -102 -199 -239 -105 -107 -96 -30
-96 -835 0 -704 0 -705 22 -745 28 -52 78 -99 128 -122 37 -17 98 -18 925 -21
934 -3 972 -1 1059 43 25 12 129 99 230 191 101 93 187 169 191 169 4 0 90
-76 191 -169 101 -92 204 -178 229 -191 25 -13 72 -28 105 -34 39 -7 344 -11
930 -11 971 0 939 -2 1016 67 22 20 50 55 62 77 l22 41 0 705 c0 805 9 728
-95 835 -95 97 -200 216 -200 225 0 5 5 12 10 15 25 15 10 66 -33 113 -219
239 -1157 1245 -1186 1270 -126 116 -316 114 -435 -4 -21 -22 -51 -64 -65 -94
l-26 -55 0 -310 c0 -344 2 -360 63 -427 49 -54 105 -81 172 -82 124 -2 221 75
249 197 5 25 26 0 245 -299 132 -179 251 -335 265 -346 19 -14 34 -18 57 -13
30 5 35 1 82 -62 l51 -68 -855 -3 c-470 -1 -1239 -1 -1709 0 l-854 3 53 70
c51 68 54 69 94 67 49 -4 26 -30 332 386 l215 292 14 -50 c29 -105 127 -176
241 -174 67 1 123 28 172 82 61 67 63 83 63 427 l0 310 -26 55 c-63 133 -208
208 -346 180z m3243 -1815 c65 -27 64 -11 64 -725 0 -540 -2 -646 -15 -676
-28 -67 15 -65 -973 -62 -823 3 -890 4 -922 21 -20 9 -131 104 -247 211 -116
107 -221 197 -232 201 -12 3 -30 3 -42 0 -11 -4 -116 -94 -232 -201 -116 -107
-227 -202 -247 -211 -32 -17 -99 -18 -922 -21 -988 -3 -945 -5 -973 62 -13 30
-15 137 -15 681 0 714 -2 692 63 720 49 22 4641 22 4693 0z"/>
<path d="M419 2245 c-60 -33 -59 -22 -59 -515 0 -402 2 -453 16 -476 37 -56 9
-54 832 -54 l759 0 29 22 c72 55 263 241 273 266 9 21 11 124 9 363 -3 366 -3
365 -64 394 -47 22 -1755 22 -1795 0z m1701 -419 l0 -284 -102 -96 -103 -96
-702 0 -703 0 0 380 0 380 805 0 805 0 0 -284z"/>
<path d="M2905 2245 c-60 -30 -60 -29 -63 -394 -2 -243 0 -342 9 -363 14 -34
259 -265 296 -279 14 -5 337 -9 774 -9 646 0 754 2 779 15 62 32 60 16 60 515
0 499 2 483 -60 515 -44 23 -1750 22 -1795 0z"/>
</g>
</svg>
